<?xml version="1.0" encoding="UTF-8"?>
<svg version="1.1" xmlns="http://www.w3.org/2000/svg" width="1014" height="1102">
<path d="M0 0 C332.64 0 665.28 0 1008 0 C1008 88.44 1008 176.88 1008 268 C763.8 268 519.6 268 268 268 C268 542.56 268 817.12 268 1100 C179.56 1100 91.12 1100 0 1100 C0 737 0 374 0 0 Z " fill="#FFFFFF" transform="translate(2,1)"/>
<path d="M0 0 C105.93 0 211.86 0 321 0 C321 105.93 321 211.86 321 321 C215.07 321 109.14 321 0 321 C0 215.07 0 109.14 0 0 Z " fill="#FFFFFF" transform="translate(417,415)"/>
</svg>
